<svg width="171.59mm" height="162.69mm" version="1.1" viewBox="0 0 171.59 162.69" xml:space="preserve" xmlns="http://www.w3.org/2000/svg" xmlns:xlink="http://www.w3.org/1999/xlink"><defs><linearGradient id="linearGradient8064" x1="443.43" x2="751.41" y1="207.75" y2="245.88" gradientUnits="userSpaceOnUse"><stop stop-color="#013766" offset="0"/><stop stop-color="#15cae6" offset="1"/></linearGradient><linearGradient id="linearGradient8068" x1="532.21" x2="631.34" y1="310.34" y2="354.74" gradientUnits="userSpaceOnUse"><stop stop-color="#013766" offset=".30204"/><stop stop-color="#011966" offset=".60102"/><stop stop-color="#15cae6" offset="1"/></linearGradient><filter id="filter33641" x="-.16878" y="-.14301" width="1.3376" height="1.286" color-interpolation-filters="sRGB"><feGaussianBlur stdDeviation="7.5381968"/></filter><linearGradient id="linearGradient42748" x1="-46.968" x2="-18.762" y1="-16.178" y2="-33.835" gradientTransform="translate(95.201 151.18)" gradientUnits="userSpaceOnUse"><stop stop-color="#013766" offset="0"/><stop stop-color="#013766" stop-opacity="0" offset="1"/></linearGradient><filter id="filter964" x="-.2011" y="-.099035" width="1.4022" height="1.1981" color-interpolation-filters="sRGB"><feGaussianBlur stdDeviation="3.3584015"/></filter><linearGradient id="linearGradient2979" x1="-3.2496" x2="81.72" y1="-472.55" y2="-526.4" gradientUnits="userSpaceOnUse"><stop stop-color="#013766" offset="0"/><stop stop-color="#15aec7" offset="1"/></linearGradient><linearGradient id="linearGradient6925" x1="19.186" x2="88.533" y1="-484.6" y2="-529.45" gradientUnits="userSpaceOnUse"><stop stop-color="#013766" offset="0"/><stop stop-color="#11a4be" offset=".71618"/><stop stop-color="#15bfd9" offset="1"/></linearGradient></defs><g transform="translate(-20.263 -63.73)"><g transform="matrix(.20052 0 0 .2038 94.308 220.63)" fill="url(#linearGradient2979)"><path d="m47.092-401.12c0.069-0.068 2.424 0.546 5.223 1.365 22.357 6.417 47.035 6.964 69.632 1.536 19.968-4.778 38.639-13.926 54.784-26.828 5.905-4.711 16.247-15.053 20.958-20.958 14.643-18.296 24.61-40.278 28.501-62.806 1.536-8.84 1.877-13.448 1.877-23.893s-0.341-15.053-1.877-23.893c-3.891-22.528-13.858-44.51-28.501-62.806-4.711-5.905-15.053-16.247-20.958-20.958-20.822-16.657-44.408-26.419-71.68-29.764-6.963-0.8533-23.074-0.8533-30.038 0-27.272 3.3451-50.858 13.107-71.68 29.764-5.905 4.7103-16.247 15.052-20.957 20.958-13.108 16.384-22.221 35.192-26.966 55.467-0.614 2.628-1.331 6.042-1.57 7.612-0.375 2.218-0.546 2.73-0.887 2.389 42.159 68.175 56.956 90.993 94.139 152.82z" fill="url(#linearGradient6925)"/></g><g transform="matrix(.20052 0 0 .2038 27.644 72.993)"><path d="m648.42 0.4288c-11.674 1.0581-21.265 2.9696-31.744 6.3488-28.741 9.2843-53.146 27.887-70.554 53.692-2.15 3.1744-12.049 20.514-12.049 21.094 0 0.1707 1.365 1.775 3.072 3.5158 20.275 21.23 34.372 49.186 39.39 78.132 2.56 14.882 2.935 30.651 1.024 45.738-3.687 29.082-16.691 57.925-36.181 80.043-3.96 4.506-12.664 13.073-16.692 16.452-17.851 14.917-38.673 25.395-61.44 30.993-13.653 3.345-29.627 4.916-42.325 4.199-3.379-0.205-6.212-0.307-6.281-0.239-0.409 0.409 4.233 11.776 7.51 18.261 10.991 21.982 25.02 39.049 45.192 54.989 35.772 28.228 79.258 38.366 120.9 28.092 30.276-7.441 56.797-25.02 75.571-50.108 3.959-5.291 7.134-10.377 13.448-21.402 2.868-4.983 8.5-14.814 12.527-21.845 14.575-25.429 33.383-58.266 55.399-96.768 12.356-21.606 24.098-41.95 26.112-45.227 7.85-12.868 12.527-23.313 16.042-35.942 7.271-26.18 6.554-53.658-2.116-79.087-6.827-20.036-17.306-36.898-32.324-51.917-11.094-11.059-22.187-18.978-36.045-25.736-13.107-6.383-26.692-10.445-41.609-12.493-3.993-0.54614-7.406-0.7168-15.223-0.81919-5.53-0.034149-10.752-0.034149-11.605 0.034118z" fill="url(#linearGradient8064)"/><path transform="matrix(4.9871 0 0 4.9069 -137.86 -358.17)" d="m143.96 80.773-6.7482 8.3841 5.3167 7.5661 2.2494 9.611 0.40898 12.678-6.5437 12.678-5.9302 5.7257-10.838 5.3167-6.9526 1.0224-2.2494-0.61347 3.6808 7.1571 9.4065 8.1796 10.633 3.6808 12.269-1.8404-0.61347-4.2943-12.269-2.0449-6.7482-6.9526 15.541-10.224 6.9526-11.86 1.2269-13.701-3.4763-13.292-2.4539-9.8155z" fill="#034471" filter="url(#filter964)" stroke-width=".409"/></g><path d="m50.31 73.559c-1.3826 0.13912-1.8889 0.19477-2.5666 0.31303-7.5219 1.3147-14.003 6.198-17.426 13.147-1.2662 2.5669-2.0259 5.1337-2.3955 8.097-0.17795 1.3634-0.17795 4.3409 0 5.7043 0.3696 2.9632 1.1362 5.5372 2.3955 8.097 0.51333 1.0434 1.0061 1.892 2.2449 3.9025 4.3188 6.9841 55.008 89.833 55.521 90.744 0.75976 1.3286 1.2731 2.1146 2.0397 3.1234 3.5454 4.6329 8.6718 7.8396 14.359 8.9736 1.6631 0.33382 2.635 0.41737 4.6199 0.41737 1.9847 0 2.9566-0.0836 4.6199-0.41737 6.5226-1.3008 12.156-5.2382 15.817-11.054 8.4049-13.349 28.938-46.106 29.006-46.259 0.0684-0.16691 0.0136-0.12513-0.24644 0.17404-0.5406 0.63992-1.2661 1.3703-1.1772 1.1894 0.0479-0.11128-0.15059 0.0349-0.54741 0.38273-4.1616 3.6451-8.6034 5.8432-13.764 6.8031-1.7658 0.32689-2.8199 0.41738-4.9963 0.41738s-3.2305-0.0905-4.9963-0.41738c-7.262-1.3565-13.654-5.4815-17.918-11.554-0.56125-0.80011-9.5617-15.596-9.5138-15.638-6.6455-11.78-13.514-22.539-18.877-31.143-0.0411-0.0487-3.258-5.3492-7.1456-11.777-3.8874-6.4275-7.2892-12.013-7.5561-12.417-3.9765-5.9754-10.061-9.7596-17.152-10.678-0.80768-0.10435-3.7232-0.19478-4.3462-0.13217z" fill="#15cae6" stroke-width=".20215"/><path d="m50.306 73.569c-1.3826 0.13912-1.8889 0.19477-2.5666 0.31303-7.5219 1.3147-14.003 6.198-17.426 13.147-1.2662 2.5669-2.0259 5.1337-2.3955 8.097-0.17795 1.3634-0.17795 4.3409 0 5.7043 0.3696 2.9632 1.1362 5.5372 2.3955 8.097 0.51333 1.0434 1.0061 1.892 2.2449 3.9025 4.3188 6.9841 55.008 89.833 55.521 90.744 0.75976 1.3286 1.2731 2.1146 2.0397 3.1234 3.5454 4.6329 8.6718 7.8396 14.359 8.9736 1.6631 0.33382 2.635 0.41737 4.62 0.41737 1.9847 0 2.9566-0.0836 4.6199-0.41737 6.5226-1.3008 12.156-5.2382 15.817-11.054 8.4049-13.349 28.938-46.106 29.006-46.259 0.0684-0.16691 0.0136-0.12513-0.24644 0.17404-0.5406 0.63992-1.2661 1.3703-1.1772 1.1894 0.0479-0.11128-0.15059 0.0349-0.54741 0.38273-4.1616 3.6451-8.6034 5.8432-13.764 6.8031-1.7658 0.32689-2.8199 0.41738-4.9963 0.41738-2.1764 0-3.2305-0.0905-4.9963-0.41738-7.262-1.3565-13.654-5.4815-17.918-11.554-0.56125-0.80011-9.5617-15.596-9.5138-15.638-6.6455-11.78-13.514-22.539-18.877-31.143-0.0411-0.0487-3.258-5.3492-7.1456-11.777-3.8874-6.4275-7.2892-12.013-7.5561-12.417-3.9765-5.9754-10.061-9.7596-17.152-10.678-0.80768-0.10435-3.7232-0.19478-4.3462-0.13217z" fill="url(#linearGradient42748)" stroke-width=".20215"/><path d="m37.645 85.27-4.3379 8.9649-0.28919 6.073 0.57838 5.2054 3.1811 5.4946 56.392 90.806 4.3379 4.9163s4.0487 3.1811 5.7838 3.7595c1.7352 0.57838 3.1811 1.1568 5.2054 1.1568s9.2541 0.28919 10.411 0 3.4703-2.0244 4.9163-2.3135 5.4946-5.7838 5.4946-5.7838 2.6027-7.8082 4.0487-8.965 6.8414-15.696 6.8414-15.696l-11.159 4.9368s-5.226 1.2154-6.672 1.2154-10.052-1.043-12.365-2.1998c-2.3135-1.1568-11.676-10.128-11.676-10.128l-7.7701-8.7835s-18.797-27.184-20.533-29.498c-1.7352-2.3135-10.989-13.592-12.435-16.195-1.446-2.6027-8.9649-14.749-8.9649-14.749s-4.0487-6.9406-4.9163-8.3866c-0.86757-1.446-6.073-9.8325-6.073-9.8325z" fill="#013766" filter="url(#filter33641)" stroke-width=".409"/></g></svg>
